 http://www.imdb.com/title/tt1424845/

Forced by a corrupt Chinese man to steal information off a computer, an affable IT guy
- George - finds himself surrounded by violence and mayhem as he tries to get the disc with
information to the crime lord. Thwarted each step of the way by ruthless killers determined
to stop him, George must race against time to save his girlfriend's life. But he soon learns
that it will take more then guts to survive the day

General
Complete name : Slam.Bang.2009.DVDRip.Xvid.TA.avi
Format : AVI
Format/Info : Audio Video Interleave
File size : 762 MiB
Duration : 1h 22mn
Overall bit rate : 1 288 Kbps
Writing library : VirtualDub build 32661/release

Video
ID : 0
Format : MPEG-4 Visual
Format profile : AdvancedSimple@L5
Format settings, BVOP : Yes
Format settings, QPel : No
Format settings, GMC : No warppoints
Format settings, Matrix : Custom
Muxing mode : Packed bitstream
Codec ID : XVID
Codec ID/Hint : XviD
Duration : 1h 22mn
Bit rate : 1 150 Kbps
Width : 560 pixels
Height : 314 pixels
Display aspect ratio : 16:9
Frame rate : 23.976 fps
Resolution : 24 bits
Colorimetry : 4:2:0
Scan type : Progressive
Bits/(Pixel*Frame) : 0.273
Stream size : 681 MiB (89%)
Writing library : XviD 1.2.1 (UTC 2008-12-04)

Audio
ID : 1
Format : MPEG Audio
Format version : Version 1
Format profile : Layer 3
Codec ID : 55
Codec ID/Hint : MP3
Duration : 1h 22mn
Bit rate mode : Constant
Bit rate : 128 Kbps
Channel(s) : 2 channels
Sampling rate : 44.1 KHz
Resolution : 16 bits
Stream size : 75.8 MiB (10%)
Alignment : Split accross interleaves
Interleave, duration : 42 ms (1.00 video frame)
Interleave, preload duration : 500 ms